<svg xmlns="http://www.w3.org/2000/svg" viewBox="0 0 300 300" fill="#000000"><path d="M72.31 159.99c7.44-24.49 23.21-50.91 38.84-71.29 7.39-9.64 1.81-26.3-8.3-31.64-12.24-6.47-23.75-2-31.64 8.3-16.46 21.48-29.3 45.06-39.22 70.22-33.38 84.7 33.87 128 76.31 103.67 25.11-14.39 30.87-52.26 9.72-72.52-10.72-10.29-28.84-14.52-45.71-6.74zm191.72 6.73c-10.73-10.28-28.85-14.5-45.72-6.73 7.44-24.49 23.21-50.91 38.84-71.29 7.39-9.64 1.81-26.3-8.3-31.64-12.24-6.47-23.75-2-31.64 8.3-16.46 21.48-29.3 45.06-39.22 70.22-33.38 84.7 33.87 128 76.31 103.67 25.12-14.4 30.88-52.27 9.73-72.53z"></path></svg>